<?xml version="1.0" encoding="UTF-8" standalone="no"?>
<svg
   xmlns:dc="http://purl.org/dc/elements/1.1/"
   xmlns:cc="http://creativecommons.org/ns#"
   xmlns:rdf="http://www.w3.org/1999/02/22-rdf-syntax-ns#"
   xmlns:svg="http://www.w3.org/2000/svg"
   xmlns="http://www.w3.org/2000/svg"
   viewBox="0 0 665.84003 418.51999"
   height="418.51999"
   width="665.84003"
   xml:space="preserve"
   id="svg2"
   version="1.1"><metadata
     id="metadata8"><rdf:RDF><cc:Work
         rdf:about=""><dc:format>image/svg+xml</dc:format><dc:type
           rdf:resource="http://purl.org/dc/dcmitype/StillImage" /></cc:Work></rdf:RDF></metadata><defs
     id="defs6"><clipPath
       id="clipPath20"
       clipPathUnits="userSpaceOnUse"><path
         id="path18"
         d="M 0,3138.9 V 0 h 4993.83 v 3138.9 z" /></clipPath></defs><g
     transform="matrix(1.3333333,0,0,-1.3333333,0,418.52)"
     id="g10"><g
       transform="scale(0.1)"
       id="g12"><g
         id="g14"><g
           clip-path="url(#clipPath20)"
           id="g16"><path
             id="path22"
             style="fill:#ffffff;fill-opacity:1;fill-rule:nonzero;stroke:none"
             d="m 843.367,1810.76 c 0,135.97 -80.847,227.85 -352.781,227.85 H 167.199 V 1571.9 H 499.77 c 205.793,0 343.597,82.68 343.597,238.86 z m 156.18,-880.901 c 0,-0.961 -0.555,-1.847 -1.402,-2.289 C 902.883,877.969 832.34,915.172 832.34,987.609 v 55.121 c 0,121.27 -7.348,371.15 -284.793,371.15 H 167.199 V 992.242 c 0,-44.851 -33.769,-84.023 -78.5193,-87.113 C 39.9844,901.77 0,939.699 0,987.609 V 2112.1 c 0,46.49 38.0352,84.53 84.5234,84.53 H 510.797 c 349.105,0 499.773,-161.7 499.773,-373 0,-141.48 -79.011,-277.45 -240.695,-332.57 203.945,-53.29 229.672,-316.03 229.672,-418.93 V 929.859" /><path
             id="path24"
             style="fill:#ffffff;fill-opacity:1;fill-rule:nonzero;stroke:none"
             d="m 2335.26,1075.81 c -1.84,-34.91 -16.54,-53.29 -40.42,-66.15 -113.93,-64.32 -238.87,-113.918 -418.93,-113.918 -365.64,0 -643.09,249.878 -643.09,659.618 0,409.74 277.45,659.64 643.09,659.64 180.06,0 305,-49.62 418.93,-113.93 23.88,-12.86 38.58,-31.23 40.42,-66.14 1.83,-38.59 -27.56,-73.49 -73.5,-73.49 -9.19,0 -22.05,1.82 -33.07,7.34 -97.39,51.45 -192.93,86.36 -336.25,86.36 -325.22,0 -492.42,-216.81 -492.42,-499.78 0,-282.95 167.2,-499.77 492.42,-499.77 143.32,0 238.86,34.91 336.25,86.36 11.02,5.51 23.88,7.35 33.07,7.35 45.94,0 75.33,-34.91 73.5,-73.49" /><path
             id="path26"
             style="fill:#ffffff;fill-opacity:1;fill-rule:nonzero;stroke:none"
             d="m 3636.07,2121.28 v -725.77 c 0,-345.43 -281.13,-499.768 -527.33,-499.768 -246.22,0 -527.34,154.338 -527.34,499.768 v 725.77 c 0,45.94 36.75,84.52 82.68,84.52 45.93,0 84.53,-38.58 84.53,-84.52 V 1390 c 0,-229.68 180.05,-341.76 360.13,-341.76 180.06,0 360.13,112.08 360.13,341.76 v 731.28 c 0,45.94 36.75,84.52 82.68,84.52 45.93,0 84.52,-38.58 84.52,-84.52" /><path
             id="path28"
             style="fill:#ffffff;fill-opacity:1;fill-rule:nonzero;stroke:none"
             d="m 4826.63,1810.76 c 0,135.97 -80.85,227.85 -352.78,227.85 H 4150.46 V 1571.9 h 332.57 c 205.79,0 343.6,82.68 343.6,238.86 z M 4982.8,987.609 c 0,-45.929 -36.75,-82.687 -82.68,-82.687 -51.45,0 -84.52,33.078 -84.52,82.687 v 55.121 c 0,121.27 -7.35,371.15 -284.79,371.15 H 4150.46 V 987.609 c 0,-45.929 -38.58,-82.687 -84.52,-82.687 -45.93,0 -82.68,36.758 -82.68,82.687 V 2112.1 c 0,45.94 36.75,84.53 82.68,84.53 h 428.12 c 349.1,0 499.77,-161.7 499.77,-373 0,-141.48 -79,-277.45 -240.7,-332.57 203.95,-53.29 229.67,-316.03 229.67,-418.93 v -84.521" /><path
             id="path30"
             style="fill:#ffffff;fill-opacity:1;fill-rule:nonzero;stroke:none"
             d="M 3973.85,474 H 1024.69 c -12.42,0 -22.5,10.031 -22.56,22.449 l -2.587,504.191 H 834.199 c -1.027,0 -1.859,-0.831 -1.859,-1.859 L 831.691,420.898 C 831.668,402.051 836.313,383.5 844.422,367.852 860.891,326.98 901.43,295.48 950.344,295.48 H 3980.12 c 47.56,0 86.13,38.559 86.13,86.129 v 0 c 0,50.813 -41.58,92.391 -92.4,92.391" /><path
             id="path32"
             style="fill:#ffffff;fill-opacity:1;fill-rule:nonzero;stroke:none"
             d="m 4386.02,451.719 c 34.35,-39.117 34.6,-97.547 0.87,-137.207 -6.86,-8.071 -14.1,-15.903 -21.67,-23.543 C 4281.65,206.57 4198.83,121.41 4116.21,36.0703 4092.02,11.0898 4065.62,-9.46094 4029.53,4.55078 3991.9,19.1484 3991.29,54.6016 3990.99,88.1484 c -0.41,44.9026 -1.02,89.8206 0.27,134.6836 0.64,22.297 2.21,296.859 0.39,330.316 -2.72,50.012 -1.6,100.372 0.54,150.461 1.09,25.532 9.98,49.692 37.55,60.051 26.6,10.012 51.88,2.199 69.34,-16.328 94.17,-99.953 196.28,-192.332 286.94,-295.613" /><path
             id="path34"
             style="fill:#ffffff;fill-opacity:1;fill-rule:nonzero;stroke:none"
             d="M 919.035,2664.9 H 3957.46 c 12.42,0 22.5,-10.04 22.56,-22.45 l 2.59,-504.19 h 165.34 c 1.03,0 1.86,0.83 1.86,1.86 l 0.65,577.88 c 0.02,18.84 -4.62,37.4 -12.73,53.05 -16.47,40.87 -57.01,72.37 -105.92,72.37 H 912.773 c -47.57,0 -86.128,-38.56 -86.128,-86.13 v 0 c 0,-50.82 41.574,-92.39 92.39,-92.39" /><path
             id="path36"
             style="fill:#ffffff;fill-opacity:1;fill-rule:nonzero;stroke:none"
             d="m 506.863,2687.18 c -34.343,39.12 -34.59,97.55 -0.867,137.21 6.867,8.07 14.106,15.9 21.668,23.54 83.578,84.4 166.391,169.56 249.02,254.89 24.191,24.99 50.582,45.54 86.671,31.53 37.629,-14.6 38.243,-50.05 38.547,-83.6 0.407,-44.9 1.02,-89.82 -0.273,-134.69 -0.641,-22.3 -2.203,-296.86 -0.391,-330.31 2.719,-50.02 1.598,-100.37 -0.539,-150.46 -1.09,-25.53 -9.976,-49.69 -37.551,-60.06 -26.593,-10 -51.882,-2.19 -69.343,16.34 -94.164,99.95 -196.278,192.32 -286.942,295.61" /></g></g></g></g></svg>